<svg viewBox="0 0 64 64" xmlns="http://www.w3.org/2000/svg">
  <path d="M 12 8 Q 6 14 6 28 Q 6 48 24 60 Q 32 66 44 60 Q 56 52 60 36 Q 64 16 52 10 Q 40 4 32 8 Z" fill="#22c55e"/>
  <rect x="18" y="18" width="28" height="24" rx="2" fill="white" stroke="#000" stroke-width="1"/>
  <line x1="22" y1="20" x2="22" y2="28" stroke="#000" stroke-width="1"/>
  <line x1="26" y1="20" x2="26" y2="28" stroke="#000" stroke-width="1"/>
  <line x1="30" y1="20" x2="30" y2="28" stroke="#000" stroke-width="1"/>
  <line x1="34" y1="20" x2="34" y2="28" stroke="#000" stroke-width="1"/>
  <line x1="38" y1="20" x2="38" y2="28" stroke="#000" stroke-width="1"/>
  <circle cx="32" cy="38" r="6" stroke="#000" stroke-width="1.5" fill="#22c55e"/>
  <path d="M 28 38 L 31 40 L 35 36" stroke="white" stroke-width="1.5" fill="none" stroke-linecap="round"/>
</svg>