<svg viewBox="0 0 200 200" xmlns="http://www.w3.org/2000/svg">
  <!-- Green background shape -->
  <path d="M 40 20 Q 20 40 20 80 Q 20 140 70 170 Q 100 190 140 170 Q 170 150 180 100 Q 190 50 160 30 Q 130 10 100 20 Z" fill="#22c55e"/>
  
  <!-- Barcode/tag shape -->
  <rect x="50" y="45" width="100" height="85" rx="8" fill="white" stroke="#000" stroke-width="2"/>
  
  <!-- Barcode lines -->
  <line x1="65" y1="55" x2="65" y2="75" stroke="#000" stroke-width="2"/>
  <line x1="75" y1="55" x2="75" y2="75" stroke="#000" stroke-width="2"/>
  <line x1="85" y1="55" x2="85" y2="75" stroke="#000" stroke-width="2"/>
  <line x1="95" y1="55" x2="95" y2="75" stroke="#000" stroke-width="2"/>
  <line x1="105" y1="55" x2="105" y2="75" stroke="#000" stroke-width="2"/>
  <line x1="115" y1="55" x2="115" y2="75" stroke="#000" stroke-width="2"/>
  <line x1="125" y1="55" x2="125" y2="75" stroke="#000" stroke-width="2"/>
  
  <!-- Circle with checkmark -->
  <circle cx="100" cy="110" r="22" stroke="#000" stroke-width="2.5" fill="#22c55e"/>
  
  <!-- Checkmark -->
  <path d="M 90 110 L 97 117 L 110 104" stroke="white" stroke-width="3" fill="none" stroke-linecap="round" stroke-linejoin="round"/>
  
  <!-- Eye circle -->
  <circle cx="75" cy="40" r="6" fill="white" stroke="#000" stroke-width="1.5"/>
  <circle cx="75" cy="40" r="3" fill="#000"/>
  
  <!-- Magnifying glass handle -->
  <line x1="118" y1="102" x2="138" y2="122" stroke="#000" stroke-width="2.5" stroke-linecap="round"/>
</svg>